<svg width="32" height="32" fill="none" xmlns="http://www.w3.org/2000/svg"><path d="M27.76 15.52l-.88-2.32c0 2.16-20.96 2.16-20.96 0l-.88 2.32c-.4 1.12-.64 2.24-.64 3.44v2.24c0 1.36 1.04 2.4 2.4 2.4H26c1.36 0 2.4-1.04 2.4-2.4v-2.24c0-1.12-.24-2.32-.64-3.44z" fill="#FFE600" stroke="#013F44" stroke-width="1.5" stroke-miterlimit="10" stroke-linecap="round" stroke-linejoin="round"/><path d="M22.8 23.6l-2.4-2.4h-8L10 23.6m-1.6 0V26c0 .88-.72 1.6-1.6 1.6H6c-.88 0-1.6-.72-1.6-1.6v-4.8m24 0V26c0 .88-.72 1.6-1.6 1.6H26c-.88 0-1.6-.72-1.6-1.6v-2.4" stroke="#013F44" stroke-width="1.5" stroke-miterlimit="10" stroke-linecap="round" stroke-linejoin="round"/><path d="M25.2 8.88c-.48-1.2-1.68-2.08-2.96-2.08H10.56c-1.36 0-2.48.8-2.96 2.08L5.04 15.6c-.4 1.12-.64 2.24-.64 3.44v2.24c0 1.36 1.04 2.4 2.4 2.4H26c1.36 0 2.4-1.04 2.4-2.4v-2.24c0-1.2-.24-2.32-.64-3.44L25.2 8.88zm-19.28 4.4c0 2.16 20.96 2.16 20.96 0" stroke="#013F44" stroke-width="1.5" stroke-miterlimit="10" stroke-linecap="round" stroke-linejoin="round"/><path d="M10.8 19.6H7.6c-.88 0-1.6-.72-1.6-1.6 0-.88.72-1.6 1.6-1.6 1.76 0 3.2 1.44 3.2 3.2zm11.2 0h3.2c.88 0 1.6-.72 1.6-1.6 0-.88-.72-1.6-1.6-1.6a3.21 3.21 0 00-3.2 3.2zM6.24 12.4H3.6l.8 1.6h1.2m21.6 0h1.2l.8-1.6h-2.64" stroke="#013F44" stroke-width="1.5" stroke-miterlimit="10" stroke-linecap="round" stroke-linejoin="round"/></svg>