<svg width="32" height="32" fill="none" xmlns="http://www.w3.org/2000/svg"><path d="M7.28 18.16c0 2 .72 3.04 1.84 4.16v4.16c0 .8.64 1.44 1.44 1.44h7.12c.8 0 1.44-.64 1.44-1.44v-6.56c0-2.96-2-5.44-4.8-6.08a2.064 2.064 0 01-1.52-2v-1.6c0-1.52-.96-3.12-2.4-4l-.48.96C7.92 7.2 6 8.48 6 10.32l-.96.48v.56c0 1.28 1.04 2.32 2.32 2.32l-.08 4.48z" fill="#FFE600" stroke="#013F44" stroke-width="1.5" stroke-miterlimit="10" stroke-linecap="round"/><path d="M17.68 28c5.04 0 7.28-5.44 2.96-10.88" stroke="#013F44" stroke-width="1.5" stroke-miterlimit="10" stroke-linecap="round"/><path d="M8.5 11.5a1 1 0 100-2 1 1 0 000 2z" fill="#013F44"/><path d="M12.8 28v-5.36m2.4-10.32l.24 2c2.16 1.04 3.6 3.2 3.6 5.68v6.56c0 .8-.64 1.36-1.36 1.44h6c.48 0 .8-.32.88-.8l1.84-14.88c.08-.56-.32-1.04-.88-1.04h-9.44c-.48.08-.96.56-.88 1.04z" stroke="#013F44" stroke-width="1.5" stroke-miterlimit="10" stroke-linecap="round"/><path d="M24.64 6.88s-2-.24-3.12.8c-.4.4-.56.88-.72 1.36-.08-.48-.32-.96-.72-1.36-1.04-1.04-3.12-.8-3.12-.8s-.24 2 .8 3.12c.96.96 2.96 1.36 2.96 1.36s2.08-.48 2.96-1.36c1.2-1.12.96-3.12.96-3.12z" fill="#FFE600" stroke="#013F44" stroke-width="1.5" stroke-miterlimit="10" stroke-linecap="round"/><path d="M20.88 9.04V3.12m2.08.8l-2.08 2.16-2.16-2.16" stroke="#013F44" stroke-width="1.5" stroke-miterlimit="10" stroke-linecap="round"/></svg>