<svg width="32" height="32" fill="none" xmlns="http://www.w3.org/2000/svg"><path d="M11.2 14.32c-3.28-1.12-6.72 1.36-6.72 4.88v2.08c0 3.84 3.12 6.96 6.96 6.96H14c3.84 0 6.96-3.12 6.96-6.96V19.2c0-3.52-3.44-6-6.72-4.88-1.04.32-2.08.32-3.04 0z" fill="#FFE600" stroke="#013F44" stroke-width="1.5" stroke-miterlimit="10"/><path d="M26.48 11.6l-1.52-1.44c-.88-.8-1.36-2-1.36-3.2h-3.84c0 1.2-.48 2.4-1.36 3.2l-1.52 1.44c-.64.64-1.04 1.52-1.12 2.48 2.64.08 5.04 2.24 5.04 5.12v2.08c0 2.8-1.68 5.2-4.08 6.32.48.4 1.04.64 1.6.64h6.64c1.44 0 2.56-1.12 2.56-2.56V14.24c0-1.04-.4-1.92-1.04-2.64zM8.72 14.16c.8-.16 1.68-.08 2.48.16l.96.24h.4c.4-5.12-1.92-7.44-7.04-7.04-.24 3.52.8 5.76 3.2 6.64zm3.92.4c0-2.24 1.28-4.32 2.64-5.2M8 9.92l4.64 4.64" stroke="#013F44" stroke-width="1.5" stroke-miterlimit="10"/><path d="M24 3.84h-4.56c-.32 0-.64.4-.64.8v1.6c0 .48.32.8.64.8H24c.32 0 .64-.4.64-.8v-1.6c0-.48-.32-.8-.64-.8z" fill="#FFE600" stroke="#013F44" stroke-width="1.5" stroke-miterlimit="10"/></svg>